<?xml version="1.0" encoding="utf-8"?>
<!-- Generator: Adobe Illustrator 21.0.0, SVG Export Plug-In . SVG Version: 6.00 Build 0)  -->
<!DOCTYPE svg PUBLIC "-//W3C//DTD SVG 1.1//EN" "http://www.w3.org/Graphics/SVG/1.1/DTD/svg11.dtd">
<svg version="1.1" xmlns="http://www.w3.org/2000/svg" xmlns:xlink="http://www.w3.org/1999/xlink" x="0px" y="0px"
	 viewBox="0 0 234.2 125.4" style="enable-background:new 0 0 234.2 125.4;" xml:space="preserve">
<g id="patek_calatrava" style="fill: #C0AF9F">
	<g>
		<g>
			<path d="M127.1,26.9c1.8,0,3.6-1.1,3.6-2.5c0-0.5-0.4-1.5-1.9-1.5c-1.9,0-3.5,2-5.2,2c-1.5,0-1.7-1.2-1.7-1.2
				c0.9,0,1.2,0,2.3-0.6c1-0.5,2.4-2,3.4-3c0.9-1,2.4-2.3,4.2-2.3s3.6,1.1,3.6,3.2c0,2.8-2.2,3.6-2.2,4.6c0,0.3,0.1,0.7,0.7,0.7
				c0.9,0,2.6-1.3,4.3-1.3c2.3,0,4.3,2.6,4.3,2.6s-2,2.6-4.3,2.6c-1.7,0-3.4-1.3-4.3-1.3c-0.6,0-0.7,0.4-0.7,0.7
				c0,1,2.2,1.9,2.2,4.6c0,2.1-1.8,3.2-3.6,3.2s-3.3-1.3-4.2-2.3c-0.9-1-2.3-2.5-3.4-3s-1.4-0.6-2.3-0.6c0,0,0.2-1.2,1.7-1.2
				c1.7,0,3.3,2,5.2,2c1.5,0,1.9-1,1.9-1.5c0-1.5-1.8-2.5-3.6-2.5h-10v10c0,1.8,1.1,3.6,2.5,3.6c0.5,0,1.5-0.4,1.5-1.9
				c0-1.9-2-3.5-2-5.2c0-1.5,1.2-1.7,1.2-1.7c0,0.9,0,1.2,0.6,2.3c0.5,1,2,2.4,3,3.4c1,0.9,2.3,2.4,2.3,4.2s-1.1,3.6-3.2,3.6
				c-2.8,0-3.6-2.2-4.6-2.2c-0.3,0-0.7,0.1-0.7,0.7c0,0.9,1.3,2.6,1.3,4.3c0,2.3-2.6,4.3-2.6,4.3s-2.6-2-2.6-4.3
				c0-1.7,1.3-3.4,1.3-4.3c0-0.6-0.4-0.7-0.7-0.7c-1,0-1.9,2.2-4.6,2.2c-2.1,0-3.2-1.8-3.2-3.6s1.3-3.3,2.3-4.2s2.5-2.3,3-3.4
				c0.5-1.1,0.6-1.4,0.6-2.3c0,0,1.2,0.2,1.2,1.7c0,1.7-2,3.3-2,5.2c0,1.5,1,1.9,1.5,1.9c1.5,0,2.5-1.8,2.5-3.6v-10h-10
				c-1.8,0-3.6,1.1-3.6,2.5c0,0.5,0.4,1.5,1.9,1.5c1.9,0,3.5-2,5.2-2c1.5,0,1.7,1.2,1.7,1.2c-0.9,0-1.2,0-2.3,0.6
				c-1,0.5-2.4,2-3.4,3c-0.9,1-2.4,2.3-4.2,2.3c-1.8,0-3.6-1.1-3.6-3.2c0-2.8,2.2-3.6,2.2-4.6c0-0.3-0.1-0.7-0.7-0.7
				c-0.9,0-2.6,1.3-4.3,1.3c-2.3,0-4.3-2.6-4.3-2.6s2-2.6,4.3-2.6c1.7,0,3.4,1.3,4.3,1.3c0.6,0,0.7-0.4,0.7-0.7c0-1-2.2-1.9-2.2-4.6
				c0-2.1,1.8-3.2,3.6-3.2c1.8,0,3.3,1.3,4.2,2.3c0.9,1,2.3,2.5,3.4,3s1.4,0.6,2.3,0.6c0,0-0.2,1.2-1.7,1.2c-1.7,0-3.3-2-5.2-2
				c-1.5,0-1.9,1-1.9,1.5c0,1.5,1.8,2.5,3.6,2.5h10V17c0-1.8-1.1-3.6-2.5-3.6c-0.5,0-1.5,0.4-1.5,1.9c0,1.9,2,3.5,2,5.2
				c0,1.5-1.2,1.7-1.2,1.7c0-0.9,0-1.2-0.6-2.3c-0.5-1-2-2.4-3-3.4c-1-0.9-2.3-2.4-2.3-4.2s1.1-3.6,3.2-3.6c2.8,0,3.6,2.2,4.6,2.2
				c0.3,0,0.7-0.1,0.7-0.7c0-0.9-1.3-2.6-1.3-4.3c0-2.3,2.6-4.3,2.6-4.3s2.6,2,2.6,4.3c0,1.7-1.3,3.4-1.3,4.3c0,0.6,0.4,0.7,0.7,0.7
				c1,0,1.9-2.2,4.6-2.2c2.1,0,3.2,1.8,3.2,3.6s-1.3,3.3-2.3,4.2s-2.5,2.3-3,3.4s-0.6,1.4-0.6,2.3c0,0-1.2-0.2-1.2-1.7
				c0-1.7,2-3.3,2-5.2c0-1.5-1-1.9-1.5-1.9c-1.5,0-2.5,1.8-2.5,3.6v10h10V26.9z"/>
		</g>
	</g>
</g>
</svg>
