<?xml version="1.0" encoding="utf-8"?>
<!-- Generator: Adobe Illustrator 21.0.0, SVG Export Plug-In . SVG Version: 6.00 Build 0)  -->
<svg version="1.1" id="language" xmlns="http://www.w3.org/2000/svg" xmlns:xlink="http://www.w3.org/1999/xlink" x="0px" y="0px"
	 viewBox="0 0 41.7 42.1" style="enable-background:new 0 0 41.7 42.1;" xml:space="preserve">
<path id="world_language" style="fill: #C0AF9F;" d="M20.9,0C9.3,0,0,9.4,0,21.1s9.3,21.1,20.9,21.1s20.9-9.4,20.9-21.1S32.4,0,20.9,0z M39,20.4
	h-8.1c-0.1-3-0.6-5.9-1.5-8.5c1.8-0.8,3.5-1.8,5-3C37.1,12,38.8,16,39,20.4z M20.1,39.4c-2.2-1.9-4.1-4.3-5.5-7.2
	c1.8-0.6,3.6-0.9,5.6-0.9L20.1,39.4C20.2,39.4,20.1,39.4,20.1,39.4z M21.6,2.8c2.5,2.1,4.6,5,6,8.3c-1.9,0.7-4,1-6.1,1.1L21.6,2.8
	C21.6,2.8,21.6,2.8,21.6,2.8z M23.8,3c3.7,0.6,7,2.4,9.6,4.9c-1.4,1.1-2.9,2-4.6,2.7C27.6,7.7,25.9,5.1,23.8,3z M20.2,2.8v9.4
	c-2.1-0.1-4.2-0.5-6.1-1.1C15.5,7.7,17.6,4.9,20.2,2.8C20.1,2.8,20.2,2.8,20.2,2.8z M12.8,10.6C11.2,9.9,9.6,9,8.2,7.9
	c2.6-2.5,5.9-4.3,9.6-4.9C15.8,5.1,14.1,7.7,12.8,10.6z M13.6,12.3c2.1,0.7,4.3,1.2,6.6,1.2v6.8h-8C12.2,17.5,12.7,14.8,13.6,12.3z
	 M20.2,21.7v8.2c-2.1,0.1-4.2,0.4-6.1,1c-1.2-2.8-1.9-5.9-1.9-9.2H20.2z M17.9,39.1c-3.3-0.6-6.4-2-8.8-4.1c1.3-0.9,2.8-1.7,4.3-2.3
	C14.5,35.1,16.1,37.3,17.9,39.1z M21.5,39.4v-8.1c1.9,0.1,3.8,0.4,5.6,0.9C25.7,35,23.8,37.5,21.5,39.4
	C21.6,39.4,21.6,39.4,21.5,39.4z M28.4,32.7c1.5,0.6,3,1.4,4.3,2.3c-2.5,2.1-5.5,3.6-8.8,4.1C25.7,37.3,27.2,35.1,28.4,32.7z
	 M27.6,31c-1.9-0.6-4-1-6.1-1v-8.2h8C29.5,25,28.8,28.2,27.6,31z M21.5,20.4v-6.8c2.3-0.1,4.5-0.5,6.6-1.2c0.9,2.5,1.4,5.2,1.5,8
	L21.5,20.4L21.5,20.4z M7.3,8.9c1.5,1.2,3.2,2.2,5,3c-0.9,2.6-1.5,5.5-1.5,8.5H2.7C2.9,16,4.6,12,7.3,8.9z M2.7,21.7h8.1
	c0.1,3.5,0.8,6.7,2,9.7c-1.7,0.7-3.3,1.6-4.8,2.6C4.9,30.9,2.9,26.5,2.7,21.7z M33.7,34.1c-1.5-1.1-3.1-2-4.8-2.6
	c1.2-2.9,1.9-6.2,2-9.7H39C38.8,26.5,36.8,30.9,33.7,34.1z"/>
</svg>
