<?xml version="1.0" encoding="utf-8"?>
<svg version="1.1" id="coeur" xmlns="http://www.w3.org/2000/svg" xmlns:xlink="http://www.w3.org/1999/xlink" x="0px" y="0px"
	 viewBox="0 0 36.2 32.5" style="fill: #C0AF9F; enable-background:new 0 0 36.2 32.5;" xml:space="preserve">
<path d="M18.1,32.5l-0.8-0.6c-0.1,0-5.2-4.2-9.8-9c-1.9-2-4.5-5.1-6.2-8.3C-0.5,11-0.1,8.1,0.6,6.3
	c1.1-3,3.7-4.9,5.6-5.7C9.3-0.6,14-0.2,18.1,4.1c4.1-4.3,8.8-4.7,11.9-3.5c2,0.8,4.5,2.7,5.6,5.7c0.7,1.8,1.1,4.7-0.8,8.2
	c-1.7,3.3-4.3,6.3-6.2,8.3c-4.6,4.8-9.7,9-9.8,9L18.1,32.5z"/>
</svg>
