<?xml version="1.0" encoding="utf-8"?>
<!-- Generator: Adobe Illustrator 21.0.0, SVG Export Plug-In . SVG Version: 6.00 Build 0)  -->
<svg version="1.1" id="loupe" xmlns="http://www.w3.org/2000/svg" xmlns:xlink="http://www.w3.org/1999/xlink" x="0px" y="0px"
	 viewBox="0 0 37.7 37.9" style="fill: #FFFFFF; enable-background:new 0 0 37.7 37.9;" xml:space="preserve">
<g>
	<path  d="M25.5,22.9l0.2-0.3c1.8-2.5,2.7-5.3,2.7-8.4C28.5,6.4,22.1,0,14.2,0S0,6.4,0,14.2s6.4,14.2,14.2,14.2
		c2.9,0,5.7-0.9,8.1-2.6l0.3-0.2l12.2,12.2l2.8-2.8L25.5,22.9z M14.2,24.6c-5.7,0-10.3-4.6-10.3-10.3c0-5.7,4.6-10.3,10.3-10.3
		s10.3,4.6,10.3,10.3C24.6,19.9,19.9,24.6,14.2,24.6z"/>
</g>
</svg>
